<svg width="120" height="41" viewBox="0 0 120 41" fill="none" xmlns="http://www.w3.org/2000/svg">
<path d="M45.5177 13.4122C45.3323 13.2219 45.0889 13.1039 44.8288 13.0783C44.5688 13.0526 44.3082 13.1209 44.0914 13.2716C43.8745 13.4222 43.7148 13.6459 43.6394 13.9045C43.564 14.1632 43.5776 14.4408 43.6778 14.6903C43.778 14.9398 43.9587 15.1457 44.1891 15.273C44.4195 15.4002 44.6854 15.441 44.9416 15.3885C45.1978 15.3359 45.4285 15.1931 45.5945 14.9845C45.7604 14.7759 45.8514 14.5142 45.8518 14.2441C45.8519 14.0895 45.8224 13.9364 45.7651 13.7936C45.7077 13.6509 45.6237 13.5212 45.5177 13.4122V13.4122Z" fill="#61A568"/>
<path d="M50.3523 10.0718C50.5102 9.90775 50.6177 9.69906 50.6611 9.47199C50.7046 9.24493 50.6821 9.00964 50.5966 8.79575C50.511 8.58185 50.3662 8.39891 50.1804 8.26995C49.9945 8.14099 49.7759 8.07177 49.5521 8.07101C49.3262 8.06664 49.1041 8.13215 48.9144 8.25914C48.7247 8.38614 48.576 8.56882 48.4874 8.78379C48.3988 8.99875 48.3742 9.23619 48.4169 9.46567C48.4596 9.69515 48.5676 9.90622 48.7271 10.0718C48.8325 10.1846 48.9587 10.2742 49.0983 10.3355C49.238 10.3967 49.3881 10.4283 49.5397 10.4283C49.6914 10.4283 49.8415 10.3967 49.9811 10.3355C50.1207 10.2742 50.2469 10.1846 50.3523 10.0718V10.0718Z" fill="#61A568"/>
<path d="M50.2946 18.3439C50.1888 18.2341 50.0631 18.147 49.9247 18.0876C49.7863 18.0281 49.638 17.9976 49.4881 17.9976C49.3383 17.9976 49.1899 18.0281 49.0515 18.0876C48.9131 18.147 48.7874 18.2341 48.6817 18.3439C48.5231 18.508 48.4151 18.717 48.3714 18.9446C48.3276 19.1721 48.3501 19.408 48.436 19.6223C48.5219 19.8367 48.6673 20.0198 48.8538 20.1487C49.0404 20.2776 49.2597 20.3464 49.484 20.3464C49.7083 20.3464 49.9276 20.2776 50.1142 20.1487C50.3007 20.0198 50.4461 19.8367 50.532 19.6223C50.6179 19.408 50.6404 19.1721 50.5966 18.9446C50.5529 18.717 50.4449 18.508 50.2863 18.3439H50.2946Z" fill="#61A568"/>
<path d="M61.1188 8.92423C60.4831 6.56844 59.1766 4.46504 57.3691 2.8877C53.4215 -0.559311 48.2651 -0.704358 42.3127 1.31351C41.1721 1.69487 39.9802 1.88639 38.7816 1.8809H24.5707C23.3735 1.88593 22.183 1.69442 21.0438 1.31351C15.0913 -0.704358 9.93502 -0.559311 5.98733 2.8877C4.17994 4.46586 2.87224 6.56878 2.23352 8.92423C-0.819025 20.1867 -0.860276 29.8622 2.83991 37.5839C4.52293 41.0778 7.12997 41.722 10.4053 40.2843C11.3593 39.8583 12.2574 39.3093 13.0783 38.6504C15.4432 36.7753 17.4197 34.4281 18.8905 31.7478C19.1463 31.2743 19.3938 30.7922 19.6 30.2888C21.2501 26.6584 23.7581 24.5723 27.582 24.9776L31.6782 25.0629L35.7703 24.9776C39.6066 24.5893 42.0817 26.6755 43.7564 30.2888C43.9792 30.7752 44.2102 31.2572 44.4659 31.7308C45.9337 34.4181 47.9105 36.7716 50.2782 38.6504C51.099 39.3093 51.9972 39.8583 52.9512 40.2843C56.2265 41.722 58.8335 41.0778 60.5166 37.5839C64.2167 29.8622 64.1631 20.1867 61.1188 8.92423ZM14.0848 22.1833C12.5606 22.1841 11.0704 21.7174 9.8027 20.8423C8.53497 19.9672 7.54668 18.7229 6.96283 17.2668C6.37897 15.8107 6.22579 14.2082 6.52265 12.6621C6.8195 11.116 7.55307 9.69563 8.63055 8.58071C9.70804 7.46579 11.081 6.70639 12.5759 6.39855C14.0708 6.09072 15.6203 6.24828 17.0286 6.85132C18.4368 7.45435 19.6405 8.47577 20.4874 9.78637C21.3343 11.097 21.7863 12.6379 21.7863 14.2142C21.7852 16.3266 20.9736 18.3523 19.5297 19.8464C18.0857 21.3405 16.1274 22.181 14.0848 22.1833V22.1833ZM30.0942 22.1491H26.5095V20.5067H30.0942V22.1491ZM36.8469 22.1491H33.2623V20.5067H36.8469V22.1491ZM47.4071 7.03008C47.9763 6.44236 48.7478 6.11227 49.5521 6.11227C50.3565 6.11227 51.128 6.44236 51.6972 7.03008V7.03008C52.1209 7.46873 52.4093 8.02744 52.526 8.63559C52.6428 9.24375 52.5825 9.87404 52.353 10.4468C52.1234 11.0196 51.7348 11.5091 51.2363 11.8535C50.7377 12.1979 50.1517 12.3817 49.5521 12.3817C48.9526 12.3817 48.3666 12.1979 47.868 11.8535C47.3695 11.5091 46.9809 11.0196 46.7513 10.4468C46.5217 9.87404 46.4615 9.24375 46.5782 8.63559C46.695 8.02744 46.9834 7.46873 47.4071 7.03008V7.03008ZM42.5725 16.4624C42.0036 15.8741 41.684 15.0761 41.684 14.244C41.684 13.412 42.0036 12.614 42.5725 12.0257C43.1414 11.4373 43.913 11.1068 44.7176 11.1068C45.5221 11.1068 46.2937 11.4373 46.8626 12.0257V12.0257C47.1443 12.317 47.3677 12.6628 47.5202 13.0435C47.6726 13.4241 47.7511 13.8321 47.7511 14.244C47.7511 14.656 47.6726 15.064 47.5202 15.4446C47.3677 15.8253 47.1443 16.1711 46.8626 16.4624C46.5809 16.7537 46.2465 16.9848 45.8784 17.1425C45.5104 17.3002 45.1159 17.3813 44.7176 17.3813C43.913 17.3813 43.1414 17.0508 42.5725 16.4624ZM51.6477 21.4026C51.1505 21.9191 50.4954 22.2412 49.7942 22.3139C49.093 22.3867 48.3891 22.2056 47.8026 21.8015C47.216 21.3975 46.7832 20.7955 46.578 20.0983C46.3727 19.4011 46.4077 18.6518 46.677 17.9783C46.9462 17.3048 47.4331 16.7487 48.0545 16.405C48.676 16.0613 49.3934 15.9512 50.0846 16.0935C50.7758 16.2358 51.3978 16.6216 51.8446 17.1853C52.2914 17.7489 52.5352 18.4554 52.5346 19.1842C52.5347 19.5968 52.4556 20.0054 52.302 20.3862C52.1483 20.767 51.9231 21.1124 51.6394 21.4026H51.6477ZM56.4823 16.4027C56.0576 16.8417 55.5166 17.1407 54.9277 17.2618C54.3388 17.3829 53.7284 17.3206 53.1737 17.083C52.619 16.8453 52.1449 16.4428 51.8113 15.9265C51.4777 15.4102 51.2997 14.8032 51.2997 14.1822C51.2997 13.5612 51.4777 12.9542 51.8113 12.4379C52.1449 11.9215 52.619 11.5191 53.1737 11.2814C53.7284 11.0438 54.3388 10.9815 54.9277 11.1026C55.5166 11.2237 56.0576 11.5227 56.4823 11.9617V11.9617C57.0497 12.5522 57.3675 13.3514 57.3659 14.184C57.3644 15.0165 57.0436 15.8144 56.474 16.4027H56.4823Z" fill="#61A568"/>
<path d="M14.0847 8.21167C12.9368 8.21167 11.8147 8.5637 10.8602 9.22326C9.90576 9.88281 9.16185 10.8203 8.72257 11.9171C8.28328 13.0138 8.16834 14.2207 8.39229 15.3851C8.61623 16.5494 9.16901 17.619 9.98071 18.4584C10.7924 19.2979 11.8266 19.8695 12.9524 20.1011C14.0783 20.3327 15.2453 20.2139 16.3058 19.7596C17.3663 19.3053 18.2728 18.5359 18.9106 17.5488C19.5483 16.5617 19.8887 15.4012 19.8887 14.2141C19.8876 12.6225 19.2758 11.0964 18.1875 9.97098C17.0993 8.84556 15.6237 8.2128 14.0847 8.21167ZM18.9812 14.2567C18.9812 14.517 18.8812 14.7665 18.7033 14.9505C18.5254 15.1346 18.284 15.2379 18.0324 15.2379H15.0211V18.3437C15.0052 18.5933 14.8981 18.8273 14.7216 18.9982C14.545 19.1692 14.3122 19.2643 14.0703 19.2643C13.8284 19.2643 13.5956 19.1692 13.419 18.9982C13.2425 18.8273 13.1354 18.5933 13.1195 18.3437V15.2294H10.1247C9.87304 15.2294 9.63172 15.126 9.45379 14.942C9.27586 14.758 9.1759 14.5084 9.1759 14.2482C9.1759 13.988 9.27586 13.7384 9.45379 13.5544C9.63172 13.3704 9.87304 13.267 10.1247 13.267H13.1318V10.1527C13.1233 10.0182 13.1415 9.8832 13.1854 9.75619C13.2293 9.62919 13.2979 9.51286 13.3871 9.41441C13.4762 9.31595 13.5839 9.23747 13.7036 9.18381C13.8232 9.13016 13.9523 9.10247 14.0827 9.10247C14.2131 9.10247 14.3421 9.13016 14.4618 9.18381C14.5814 9.23747 14.6891 9.31595 14.7783 9.41441C14.8674 9.51286 14.936 9.62919 14.9799 9.75619C15.0238 9.8832 15.0421 10.0182 15.0335 10.1527V13.267H18.0448C18.2957 13.2704 18.5351 13.3764 18.7106 13.5619C18.8861 13.7474 18.9834 13.9972 18.9812 14.2567V14.2567Z" fill="#61A568"/>
<path d="M54.3288 13.011C54.0663 13.0111 53.8119 13.1054 53.609 13.2778C53.4061 13.4502 53.2674 13.69 53.2164 13.9564C53.1654 14.2228 53.2054 14.4992 53.3295 14.7385C53.4535 14.9778 53.654 15.1652 53.8968 15.2687C54.1395 15.3723 54.4094 15.3855 54.6606 15.3062C54.9117 15.2269 55.1284 15.0599 55.2738 14.8338C55.4192 14.6077 55.4843 14.3364 55.4579 14.0663C55.4315 13.7961 55.3153 13.5437 55.1291 13.3523C54.9159 13.1344 54.6285 13.0118 54.3288 13.011V13.011Z" fill="#61A568"/>
<path d="M74.7769 13.7877C74.3947 13.9682 73.9969 14.1111 73.5888 14.2144C73.203 14.3155 72.8071 14.3699 72.4091 14.3765C71.5276 14.3956 70.6547 14.1952 69.8639 13.792C69.1642 13.4321 68.5787 12.8725 68.1768 12.1794C67.7743 11.4685 67.5688 10.6567 67.5828 9.83307C67.5531 8.85921 67.7707 7.89431 68.2139 7.03451C68.6046 6.30578 69.1943 5.71226 69.9093 5.32807C70.637 4.94459 71.4439 4.74986 72.2606 4.76068C72.786 4.75729 73.3098 4.82178 73.8198 4.95266C74.2667 5.06502 74.6988 5.2326 75.1069 5.45179L74.5252 7.15823C74.2121 6.99224 73.8812 6.86481 73.5393 6.77855C73.1999 6.67604 72.8492 6.6187 72.4957 6.6079C71.6704 6.54928 70.8554 6.82462 70.2228 7.3758C69.9458 7.67802 69.733 8.03681 69.598 8.42914C69.463 8.82146 69.4089 9.23865 69.439 9.6539C69.4268 10.186 69.5598 10.7108 69.8227 11.1684C70.0778 11.6001 70.4491 11.9455 70.8911 12.1624C71.3812 12.3998 71.9174 12.5181 72.4586 12.5079C72.8842 12.5337 73.3093 12.4502 73.6961 12.2647V11.1214H72.1244V9.32967H75.5152V13.3099C75.2988 13.5137 75.0487 13.6755 74.7769 13.7877V13.7877Z" fill="#61A568"/>
<path d="M82.0947 12.4139H79.0752L78.3326 14.2568H76.563L80.6881 4.44482H80.7871L84.9121 14.2568H82.8496L82.0947 12.4139ZM81.5007 10.8525L80.6221 8.56161L79.7063 10.8525H81.5007Z" fill="#61A568"/>
<path d="M95.5629 4.45336V14.2654H93.7685V9.76465L90.7985 14.1289H90.7572L87.8985 10.0462V14.2568H86.166V4.44482L90.782 11.2151L95.5093 4.44482L95.5629 4.45336Z" fill="#61A568"/>
<path d="M99.7089 4.8374V14.2569H97.9146V4.8374H99.7089Z" fill="#61A568"/>
<path d="M110.265 4.83731V14.6493H110.215L103.842 8.68959L103.879 14.2568H102.06V4.44482H102.134L108.495 10.5069L108.458 4.83731H110.265Z" fill="#61A568"/>
<path d="M119.253 13.7876C118.871 13.9681 118.473 14.111 118.065 14.2143C117.68 14.3154 117.284 14.3698 116.886 14.3764C116.004 14.3955 115.131 14.1951 114.34 13.7919C113.641 13.432 113.055 12.8724 112.653 12.1793C112.251 11.4684 112.045 10.6567 112.059 9.83298C112.03 8.85912 112.247 7.89422 112.69 7.03442C113.081 6.30569 113.671 5.71216 114.386 5.32798C115.114 4.93427 115.924 4.73069 116.745 4.73499C117.271 4.7316 117.795 4.79609 118.305 4.92696C118.751 5.03933 119.184 5.20691 119.592 5.4261L119.01 7.13254C118.697 6.96655 118.366 6.83912 118.024 6.75285C117.685 6.65035 117.334 6.59301 116.981 6.58221C116.155 6.52359 115.34 6.79893 114.708 7.35011C114.431 7.65233 114.218 8.01112 114.083 8.40345C113.948 8.79577 113.894 9.21295 113.924 9.6282C113.912 10.1603 114.045 10.6851 114.307 11.1427C114.563 11.5744 114.934 11.9198 115.376 12.1367C115.866 12.3742 116.402 12.4924 116.943 12.4822C117.369 12.5081 117.794 12.4245 118.181 12.2391V11.1213H116.609V9.32958H120V13.3098C119.781 13.5145 119.528 13.6763 119.253 13.7876V13.7876Z" fill="#61A568"/>
<path d="M73.8692 29.4356C73.3411 29.6366 72.7819 29.7364 72.2192 29.7299C71.3534 29.7518 70.4981 29.5306 69.7441 29.09C69.0642 28.6878 68.5069 28.0967 68.1354 27.3836C67.7616 26.6532 67.5702 25.8379 67.5785 25.0116C67.5632 24.1328 67.7543 23.2632 68.1354 22.4776C68.4884 21.7437 69.0383 21.1305 69.7194 20.7114C70.4212 20.2892 71.2219 20.0752 72.0336 20.0928C72.5535 20.0878 73.071 20.1655 73.5681 20.3232C74.0025 20.4602 74.4183 20.6537 74.8056 20.8991L74.1002 22.6525C73.5329 22.1735 72.8276 21.9034 72.0954 21.8846C71.6343 21.8843 71.1831 22.0221 70.796 22.2813C70.389 22.5482 70.0563 22.9202 69.8308 23.3606C69.5892 23.8275 69.4658 24.3499 69.4719 24.8794C69.4601 25.4296 69.5746 25.975 69.806 26.4706C70.0168 26.9154 70.3478 27.2873 70.7589 27.5414C71.1982 27.8047 71.6992 27.9376 72.2068 27.9254C72.6173 27.9314 73.0251 27.8546 73.4072 27.6993C73.7115 27.5773 73.9912 27.3979 74.2322 27.1703L74.9747 28.834C74.6387 29.0927 74.2657 29.2956 73.8692 29.4356V29.4356Z" fill="#61A568"/>
<path d="M78.5595 20.1953V27.8231H82.8414V29.6149H76.7651V20.1953H78.5595Z" fill="#61A568"/>
<path d="M86.5661 26.9912C86.7424 27.2671 86.98 27.4953 87.2591 27.6567C87.5411 27.8255 87.8614 27.9139 88.1873 27.9127C88.529 27.9161 88.8658 27.8279 89.1649 27.6567C89.4477 27.4991 89.6875 27.2702 89.862 26.9912C90.0254 26.7384 90.1142 26.442 90.1178 26.138V20.1953H91.8874V26.1678C91.8954 26.8117 91.7235 27.4442 91.3924 27.9895C91.0651 28.5346 90.6001 28.9771 90.0477 29.2693C89.4719 29.5694 88.8361 29.7257 88.1914 29.7257C87.5466 29.7257 86.9109 29.5694 86.3351 29.2693C85.7862 28.9766 85.3254 28.534 85.0027 27.9895C84.676 27.4426 84.5071 26.8106 84.516 26.1678V20.1953H86.3104V26.1337C86.3114 26.4395 86.4004 26.738 86.5661 26.9912V26.9912Z" fill="#61A568"/>
<path d="M99.8616 25.5493C100.132 25.9173 100.277 26.3672 100.274 26.8291C100.304 27.2305 100.237 27.6335 100.078 28.0009C99.9183 28.3684 99.6724 28.6886 99.3625 28.9323C98.6945 29.4001 97.8999 29.6362 97.0937 29.6063H94.0576V20.1953H96.7307C97.532 20.1487 98.3276 20.3603 99.0077 20.8011C99.2779 20.9988 99.4953 21.2641 99.6396 21.5722C99.7838 21.8803 99.8503 22.2211 99.8327 22.563C99.8418 22.9924 99.7438 23.417 99.5481 23.7959C99.359 24.1499 99.0811 24.4447 98.7437 24.6491C99.1828 24.8485 99.567 25.1579 99.8616 25.5493V25.5493ZM95.8479 24.0476H96.9452C97.0876 24.056 97.2301 24.0322 97.3626 23.9776C97.4951 23.9231 97.6145 23.8392 97.7124 23.7319C97.8954 23.5201 97.9929 23.2437 97.9847 22.9597C97.9937 22.822 97.9703 22.684 97.9164 22.5577C97.8625 22.4314 97.7798 22.3205 97.6753 22.2345C97.4255 22.0555 97.1248 21.9683 96.8214 21.9871H95.8561L95.8479 24.0476ZM98.0177 27.6226C98.1483 27.5422 98.2556 27.4268 98.3282 27.2887C98.4008 27.1505 98.436 26.9947 98.4302 26.8376C98.4302 26.1721 97.9187 25.8394 96.8957 25.8394H95.8685V27.8871H97.0194C97.3698 27.8993 97.7162 27.8075 98.0177 27.6226Z" fill="#61A568"/>
</svg>
